<svg fill="none" stroke="#000" viewBox="0 0 535.98 420.26" xmlns="http://www.w3.org/2000/svg"><path id="b" class="cls-1" transform="translate(-152.95 -87.51)" d="M481.75,149.16C512,128.71,530.5,91,530.5,91s-7.23,40.79-6.19,76.59c1.12,38.72,22,44.66,38.58,49.34,32.14,9.07,122.55-4.89,122.55-4.89S629.58,235.54,596,275.12c-11.08,13.06-9.82,30.36,0,45,31.33,46.81,89.43,63.08,89.43,63.08s-67.06-19.83-118.35-4.72c-23.31,6.86-37.37,28-40.79,61.49-4.79,46.87,4.2,64.27,4.2,64.27s-29.15-52.47-67.79-74.43c-20.71-11.77-60.75-5-81.76,5.88-26.87,13.89-69.56,68.55-69.56,68.55s16.1-58.63,3.81-89.55C309.51,400.4,298,389.2,288,381.66c-43.68-32.78-131.55,1.57-131.55,1.57S218,353.9,232.87,328.6c6.87-11.67,16.4-38.76,6.18-58.29-21.61-41.34-82.6-58.26-82.6-58.26s96.59,18.16,125.39,7.42c23-8.57,38.91-22.37,38.11-56.13C318.8,114.27,311.39,91,311.39,91S358,149.16,388,157.32C411.76,163.77,460.22,163.73,481.75,149.16Z" stroke-width="7" stroke-linecap="round" stroke-linejoin="round" /></svg>
