<svg viewBox="0 0 387.31 222.57" xmlns="http://www.w3.org/2000/svg"><path d="m164.64 9.3066e-4a3.5004 3.5004 0 0 0-3.4668 4.3867s6.0606 22.965 4.6504 71.701a3.5004 3.5004 0 0 0 0 2e-3c-0.46788 16.317-4.6229 27.056-11.234 34.746-6.6114 7.6903-15.938 12.5-27.312 16.072a3.5004 3.5004 0 0 0 0 2e-3c-6.4115 2.0155-17.7 2.4159-30.592 1.5507-12.891-0.86533-27.487-2.8828-41.186-5.1934-27.399-4.621-51.176-10.395-51.176-10.395a3.5004 3.5004 0 0 0-1.9375 6.7207s58.912 20.33 77.367 60.643a3.5004 3.5004 0 0 0 0 2e-3c4.1288 9.0084 3.8179 19.872 1.4121 29.951-1.0527 4.4101-2.5098 8.5904-4.1035 12.379h7.5586c1.2869-3.367 2.4494-6.9681 3.3535-10.756 2.6332-11.031 3.1984-23.461-1.8555-34.49l-2e-3 -2e-3c-10.933-23.88-33.44-40.45-52.098-50.877 6.312 1.241 13.157 2.5174 20.314 3.7246 13.843 2.3348 28.621 4.3871 41.885 5.2774 13.264 0.89026 24.908 0.73403 33.158-1.8594 12.043-3.7823 22.732-9.1258 30.521-18.188 7.79-9.0613 12.425-21.672 12.924-39.109 0.82107-28.376-0.87989-47.499-2.502-59.457 4.4807 5.7041 10.295 12.872 17.068 20.473 14.705 16.499 32.781 34.386 49.111 39.76a3.5004 3.5004 0 0 0 2e-3 0c12.268 4.0307 30.406 6.5658 48.557 6.4707 18.151-0.09509 36.217-2.7004 48.391-10.041v2e-3c19.105-11.507 33.929-29.051 43.016-41.631-2.7964 15.159-6.277 37.393-6.7852 59.182-0.4686 19.986 4.7308 32.585 12.5 40.605 1.6225 1.675 3.3477 3.0988 5.127 4.3652v-9.1465c-0.0306-0.0314-0.0652-0.0564-0.0957-0.0879-6.3518-6.5576-10.969-16.833-10.529-35.572 0.82225-35.257 10.1-75.451 10.1-75.451a3.5004 3.5004 0 0 0-3.7871-4.2695h-2e-3a3.5004 3.5004 0 0 0-2.6797 1.7734s-20.339 36.084-50.475 54.234a3.5004 3.5004 0 0 0 0 2e-3c-10.089 6.083-27.355 8.9418-44.814 9.0332-17.46 0.09145-35.214-2.4652-46.336-6.1191-13.202-4.3459-31.645-21.578-46.072-37.768-14.428-16.19-25.213-31.189-25.213-31.189a3.5004 3.5004 0 0 0-2.7617-1.457z"/></svg>
