<svg viewBox="0 0 384 383.37" xmlns="http://www.w3.org/2000/svg"><path d="m384 179.77v23.95a22 22 0 0 0-0.6 2.49c-1 7.52-1.64 15.12-3.12 22.55-9 45-31.46 82-66.8 111.15a186.9 186.9 0 0 1-99.54 42.15c-3.32 0.38-6.63 0.87-9.94 1.31h-24c-1.08-0.22-2.15-0.5-3.24-0.65-8-1.14-16.14-1.8-24.06-3.46a186.58 186.58 0 0 1-86.45-43c-37-32.55-58.81-73.27-64.89-122.25-0.43-3.44-0.91-6.87-1.36-10.31v-23.93a26.81 26.81 0 0 0 0.64-3.26 167.89 167.89 0 0 1 5.78-33.84c15.42-54.74 48.33-95.52 98.9-121.71 37.12-19.22 76.67-25 117.83-18.3 39 6.33 73 23.41 101.49 50.82q49.54 47.66 58 116c0.42 3.42 0.91 6.85 1.36 10.29zm-272.39-0.26h68.11v-61.47h-59.65a288.69 288.69 0 0 0-8.46 61.47zm8.47 85.81h59.65v-61.35h-68.14a286.78 286.78 0 0 0 8.49 61.35zm152.35-85.74a288.24 288.24 0 0 0-8.55-61.5h-59.69v61.5zm0 24.39h-68.16v61.47h59.62a288.84 288.84 0 0 0 8.51-61.47zm70.48-85.8h-54.25a335.61 335.61 0 0 1 7.83 61.36h63a164.35 164.35 0 0 0-16.61-61.36zm16.57 85.76h-63a341.54 341.54 0 0 1-7.78 61.51h54.15a164.45 164.45 0 0 0 16.6-61.51zm-264.11 61.51a334.2 334.2 0 0 1-7.87-61.47h-63a164.31 164.31 0 0 0 16.69 61.47zm-7.86-85.85a338.67 338.67 0 0 1 7.8-61.53h-54.17a163.09 163.09 0 0 0-16.56 61.53zm92.36-150.8c-1 0.28-1.6 0.41-2.17 0.64-0.92 0.37-1.82 0.8-2.73 1.23-8.15 3.85-14.84 9.59-20.77 16.25-9.9 11.11-17 23.93-22.88 37.48-1.28 3-2.41 6-3.73 9.26h52.28zm24.38-0.06v64.93h52.47c-3.25-7.15-6.07-13.93-9.35-20.47-5.86-11.65-13-22.41-22.58-31.45-5.92-5.61-12.47-10.3-20.54-13.01zm-24.36 261h-52.05c0.21 0.83 0.3 1.45 0.51 2 4.93 12.69 10.85 24.88 18.83 36 6.46 9 13.86 17 23.51 22.72 2.83 1.67 5.89 3 9.2 4.59zm76.8 0.07h-52.44v64.94a50.87 50.87 0 0 0 17-9.83c11.39-9.56 19.54-21.6 26.18-34.7 3.28-6.52 6.06-13.31 9.26-20.36zm71.57-196.08c-20.13-27.16-45.17-46.42-76.07-58.18 13.42 17.66 22.64 37.38 29.7 58.18zm-272.47 0h46.35c7-20.86 16.31-40.51 29.65-58.15-30.93 11.87-56.01 31.08-76 58.17zm76 254.13c-6.42-8.9-12.46-18-17.06-27.89s-8.76-20-13.17-30.15c-5.07-0.67-42.44-0.41-45.37 0.45 19.65 26.59 44.7 45.84 75.58 57.61zm150.06-58.08c-7 20.85-16.29 40.48-29.62 58.11 31-11.85 56-31.11 76-58.11z"/></svg>
