<?xml version="1.0" standalone="no"?>
<!DOCTYPE svg PUBLIC "-//W3C//DTD SVG 20010904//EN"
 "http://www.w3.org/TR/2001/REC-SVG-20010904/DTD/svg10.dtd">
<svg version="1.0" xmlns="http://www.w3.org/2000/svg"
 width="608.000000pt" height="608.000000pt" viewBox="0 0 608.000000 608.000000"
 preserveAspectRatio="xMidYMid meet">
<metadata>
Created by potrace 1.14, written by Peter Selinger 2001-2017
</metadata>
<g transform="translate(0.000000,608.000000) scale(0.100000,-0.100000)"
fill="#000000" stroke="none">
<path d="M1808 5432 c-33 -4 -75 -42 -84 -77 -4 -14 3 -71 15 -128 28 -132 27
-127 40 -232 12 -95 16 -132 27 -285 23 -323 -8 -467 -123 -577 -52 -49 -187
-125 -243 -137 -14 -3 -36 -8 -50 -11 -38 -10 -380 -13 -380 -4 0 5 -11 4 -25
-1 -14 -5 -25 -6 -25 -2 0 4 -19 8 -43 8 -69 2 -155 12 -167 19 -5 3 -10 1
-10 -5 0 -6 -5 -8 -11 -5 -10 7 -26 10 -104 19 -22 3 -58 8 -80 12 -22 3 -53
7 -70 9 -16 1 -30 4 -30 5 0 2 -38 7 -83 11 -18 2 -35 7 -38 11 -3 4 -11 5
-19 1 -8 -3 -23 -2 -32 2 -10 4 -29 9 -43 11 -14 1 -51 6 -84 10 -86 10 -124
-12 -142 -86 -2 -8 1 -31 6 -50 11 -39 39 -60 116 -85 27 -9 56 -19 64 -22 8
-4 17 -7 20 -7 3 -1 15 -7 28 -14 12 -7 22 -11 22 -8 0 13 323 -159 328 -175
2 -5 10 -9 18 -9 8 0 14 -4 14 -8 0 -4 15 -16 32 -27 46 -27 198 -180 238
-239 71 -105 91 -214 65 -350 -16 -80 -28 -122 -56 -183 -10 -24 -19 -45 -19
-49 0 -20 -93 -122 -181 -197 -51 -44 -283 -200 -349 -235 -25 -13 -48 -29
-52 -36 -4 -6 -8 -8 -8 -3 0 4 -17 -3 -37 -16 -21 -13 -53 -30 -71 -38 -17 -8
-32 -17 -32 -21 0 -5 -3 -7 -7 -6 -15 3 -79 -31 -104 -55 -78 -72 -13 -203 90
-181 43 9 39 8 76 23 32 14 62 22 83 23 6 1 12 5 12 10 0 5 5 6 10 3 6 -4 17
-1 25 5 8 7 15 10 15 6 0 -3 11 -1 25 4 14 5 36 12 48 14 21 5 42 10 87 21 35
9 56 13 91 19 19 3 45 8 59 11 29 6 71 12 155 22 72 8 274 8 330 0 22 -3 64
-9 93 -13 29 -4 55 -11 58 -15 3 -5 13 -9 23 -9 29 0 172 -76 216 -115 22 -20
52 -46 66 -59 44 -39 118 -134 143 -184 27 -54 52 -136 61 -202 6 -48 7 -246
0 -295 -2 -16 -6 -57 -9 -90 -7 -72 -18 -132 -57 -325 -21 -101 -21 -107 -5
-142 25 -52 93 -73 142 -45 12 7 57 55 100 107 43 52 83 100 89 106 5 6 35 40
65 75 148 171 368 378 476 447 59 37 172 84 185 76 5 -3 9 -1 9 5 0 5 19 12
43 16 23 4 46 10 52 13 5 3 16 7 25 8 8 1 28 4 43 7 118 24 348 26 385 3 5 -3
21 -7 36 -10 85 -15 282 -172 446 -352 83 -92 280 -358 280 -379 0 -3 6 -13
13 -20 6 -7 23 -31 36 -53 37 -62 94 -79 152 -45 42 25 64 90 43 133 -13 28
-33 112 -42 180 -11 81 -7 481 6 504 2 4 6 27 8 50 5 67 52 216 90 286 46 85
130 165 211 201 34 16 73 31 85 33 13 3 24 5 26 7 4 3 88 19 132 25 14 2 41 6
60 10 19 4 114 7 210 7 153 0 209 -2 355 -18 33 -4 95 -14 129 -21 11 -3 35
-7 51 -9 29 -4 48 -8 105 -21 14 -3 38 -7 53 -10 16 -3 45 -11 65 -18 45 -16
116 -13 138 5 21 17 44 64 44 89 0 50 -48 100 -112 116 -5 1 -9 2 -10 4 -2 1
-10 3 -19 5 -27 5 -194 79 -197 87 -2 4 -10 8 -17 8 -8 0 -53 23 -101 50 -48
28 -89 50 -91 50 -3 0 -19 11 -37 25 -17 14 -36 29 -41 33 -6 5 -24 17 -40 28
-17 10 -43 30 -60 44 -48 40 -218 212 -240 243 -115 163 -138 265 -85 381 25
54 187 219 300 306 25 19 47 37 50 40 12 15 204 143 295 197 55 33 161 91 236
128 151 75 174 98 166 161 -3 21 -17 49 -34 66 -27 29 -30 30 -98 24 -38 -3
-88 -8 -110 -11 -22 -3 -53 -8 -70 -9 -16 -2 -55 -7 -85 -11 -62 -8 -99 -12
-185 -20 -33 -3 -80 -7 -105 -10 -285 -27 -595 -25 -725 4 -232 52 -325 139
-359 337 -18 104 -14 394 9 589 3 22 7 65 10 95 10 99 24 197 33 235 12 47 3
82 -28 114 -49 48 -130 43 -162 -11 -8 -13 -38 -63 -68 -113 -100 -169 -245
-343 -373 -450 -57 -47 -157 -106 -169 -99 -4 3 -8 0 -8 -5 0 -6 -3 -10 -7 -9
-5 1 -27 -4 -51 -11 -24 -7 -55 -14 -70 -17 -15 -2 -49 -8 -77 -13 -27 -5 -58
-7 -67 -5 -10 1 -20 -1 -22 -5 -3 -4 -83 -6 -178 -5 -166 2 -211 5 -288 20
-19 3 -46 8 -60 10 -44 8 -163 71 -240 129 -155 116 -339 296 -523 512 -79 92
-108 112 -159 105z m403 -671 c201 -177 368 -273 519 -295 25 -4 56 -9 70 -11
60 -10 193 -18 285 -18 94 -1 273 11 285 18 3 1 26 6 53 9 26 4 58 11 72 16
14 5 25 8 25 6 0 -13 220 74 240 94 3 3 23 17 45 32 67 46 134 107 222 201
l61 66 -4 -77 c-8 -123 -8 -362 0 -427 16 -142 64 -262 143 -356 39 -47 152
-129 177 -129 8 0 16 -4 18 -8 3 -9 151 -57 203 -67 17 -2 41 -7 55 -10 61
-12 158 -17 320 -16 154 1 305 7 305 11 0 1 24 3 53 4 28 1 52 0 52 -4 0 -3
-15 -14 -32 -25 -18 -10 -37 -23 -43 -27 -5 -5 -28 -22 -50 -38 -22 -16 -45
-33 -50 -37 -100 -75 -355 -319 -355 -340 0 -7 -4 -13 -8 -13 -15 0 -63 -109
-76 -172 -24 -115 -1 -253 59 -363 44 -81 133 -193 237 -297 54 -54 100 -98
103 -98 3 0 18 -11 33 -25 16 -14 37 -32 47 -39 16 -12 -4 -14 -141 -15 -162
-2 -194 -3 -274 -16 -25 -4 -58 -8 -75 -10 -16 -2 -30 -4 -30 -5 0 -1 -7 -3
-15 -5 -8 -1 -35 -8 -60 -15 -25 -7 -53 -14 -62 -15 -10 -2 -55 -22 -100 -44
-186 -92 -323 -279 -382 -521 -28 -117 -49 -290 -50 -417 -1 -35 -3 -63 -6
-63 -3 0 -27 26 -54 58 -57 68 -125 139 -195 205 -66 62 -232 187 -248 187 -7
0 -13 3 -13 8 0 6 -31 22 -105 52 -88 36 -307 50 -455 29 -126 -18 -145 -21
-152 -26 -5 -2 -21 -7 -36 -9 -46 -8 -155 -44 -169 -55 -7 -6 -13 -8 -13 -5 0
4 -10 1 -22 -6 -13 -7 -25 -13 -28 -13 -12 -1 -130 -68 -147 -83 -10 -10 -36
-30 -58 -47 -60 -44 -106 -87 -241 -223 -66 -67 -124 -122 -127 -122 -3 0 -4
10 -1 23 12 51 11 356 -1 435 -27 177 -107 327 -249 467 -87 86 -98 95 -166
142 -43 29 -168 91 -200 99 -8 2 -39 10 -67 18 -29 8 -53 12 -53 10 0 -3 -6
-2 -12 2 -14 9 -14 9 -123 19 -85 8 -255 9 -317 1 -21 -2 -38 -1 -38 3 1 3 17
18 36 33 92 69 189 176 237 260 29 49 86 196 93 238 5 26 10 56 20 100 7 37 7
193 -1 232 -14 69 -39 135 -71 186 -19 29 -34 55 -34 58 0 21 -190 221 -267
280 l-28 22 45 -4 c137 -12 200 -15 340 -16 85 0 182 3 215 6 67 7 208 45 213
58 2 4 10 8 17 8 8 0 36 12 62 26 158 88 248 182 306 324 48 115 57 185 52
415 -2 105 -6 208 -9 230 -3 22 -8 62 -10 89 l-5 48 82 -80 c45 -44 103 -99
128 -121z"/>
</g>
</svg>
